<svg width="50" height="50" viewBox="0 0 50 50" fill="none" xmlns="http://www.w3.org/2000/svg">
<circle cx="25" cy="25" r="25" fill="#004476"/>
<path d="M17.5661 29.1183C20.0413 32.0659 23.0208 34.3867 26.4216 36.0288C27.7164 36.6401 29.4479 37.3653 31.3771 37.4896C31.4967 37.4948 31.6111 37.5 31.7307 37.5C33.0255 37.5 34.0655 37.0545 34.913 36.1376C34.9182 36.1324 34.9286 36.122 34.9338 36.1117C35.2354 35.7491 35.5786 35.4227 35.9374 35.0756C36.1818 34.8425 36.4314 34.599 36.6706 34.3504C37.7782 33.2004 37.7782 31.7395 36.6602 30.6258L33.5351 27.5124C33.0047 26.9633 32.3703 26.6732 31.7047 26.6732C31.0391 26.6732 30.3995 26.9633 29.8535 27.5073L27.992 29.3618C27.8204 29.2634 27.6436 29.1753 27.4772 29.0924C27.2692 28.9888 27.0768 28.8904 26.9052 28.7816C25.21 27.7093 23.6708 26.3106 22.1993 24.5131C21.4557 23.5754 20.9565 22.788 20.6081 21.9851C21.0969 21.5448 21.5545 21.0837 21.9965 20.633C22.1525 20.4724 22.3137 20.3119 22.4749 20.1513C23.0364 19.5918 23.338 18.9443 23.338 18.2864C23.338 17.6285 23.0416 16.9809 22.4749 16.4215L20.9253 14.8777C20.7433 14.6964 20.5717 14.5203 20.3949 14.339C20.0517 13.9867 19.6929 13.6241 19.3393 13.2978C18.8037 12.7746 18.1745 12.5 17.5089 12.5C16.8485 12.5 16.2142 12.7746 15.6578 13.3029L13.713 15.2404C13.0058 15.9449 12.6054 16.7996 12.5222 17.7891C12.4234 19.0271 12.6522 20.3429 13.245 21.9333C14.155 24.3939 15.5278 26.6784 17.5661 29.1183ZM13.791 17.8978C13.8534 17.2089 14.1186 16.6339 14.6178 16.1366L16.5522 14.2095C16.8537 13.9194 17.1865 13.7692 17.5089 13.7692C17.8261 13.7692 18.1485 13.9194 18.4449 14.2199C18.7933 14.541 19.1209 14.8777 19.4745 15.2352C19.6513 15.4165 19.8333 15.5978 20.0153 15.7843L21.5649 17.328C21.8873 17.6492 22.0537 17.9755 22.0537 18.2967C22.0537 18.6179 21.8873 18.9443 21.5649 19.2654C21.4037 19.426 21.2425 19.5918 21.0813 19.7524C20.5977 20.2393 20.1453 20.7004 19.6461 21.1407C19.6357 21.1511 19.6305 21.1562 19.6201 21.1666C19.1885 21.5966 19.2561 22.0058 19.3601 22.3166C19.3653 22.3322 19.3705 22.3425 19.3757 22.3581C19.7761 23.3164 20.3325 24.2281 21.2009 25.316C22.7608 27.2327 24.404 28.7194 26.2136 29.8643C26.4372 30.0093 26.6764 30.1233 26.9 30.2373C27.108 30.3409 27.3004 30.4393 27.472 30.5481C27.4928 30.5584 27.5084 30.5688 27.5292 30.5792C27.7008 30.6672 27.8672 30.7087 28.0336 30.7087C28.4496 30.7087 28.7199 30.4445 28.8083 30.3564L30.7531 28.419C31.0547 28.1185 31.3823 27.9579 31.7047 27.9579C32.0999 27.9579 32.4223 28.2014 32.6251 28.419L35.7606 31.5375C36.3846 32.1591 36.3794 32.8326 35.745 33.4905C35.5266 33.7236 35.2978 33.9463 35.0534 34.1794C34.6894 34.5317 34.3099 34.8943 33.9667 35.3036C33.3687 35.9459 32.6563 36.2464 31.7359 36.2464C31.6475 36.2464 31.5539 36.2412 31.4655 36.236C29.7599 36.1272 28.174 35.4642 26.9832 34.8995C23.7488 33.3402 20.9097 31.1283 18.5541 28.3206C16.6146 25.9946 15.3094 23.8293 14.4462 21.5085C13.9106 20.0839 13.7078 18.9391 13.791 17.8978Z" fill="white" stroke="white" stroke-width="1.25"/>
</svg>
