<svg width="43" height="43" viewBox="0 0 43 43" fill="none" xmlns="http://www.w3.org/2000/svg">
<path d="M21.8441 42.5757C33.5281 42.5757 42.9998 33.104 42.9998 21.4201C42.9998 9.73611 33.5281 0.264404 21.8441 0.264404C10.1602 0.264404 0.688477 9.73611 0.688477 21.4201C0.688477 33.104 10.1602 42.5757 21.8441 42.5757Z" fill="#C1272D"/>
<path d="M36.0956 21.9944C36.0956 22.3207 36.0956 22.6469 36.0956 22.908C36.0443 24.656 35.8874 26.3993 35.6257 28.1284C35.5367 28.6091 35.419 29.0842 35.2733 29.5509C35.1505 29.9651 34.9351 30.346 34.6434 30.6648C34.3518 30.9836 33.9915 31.232 33.5898 31.3911C33.0796 31.631 32.5145 31.7297 31.9533 31.6769C31.392 31.6241 30.8552 31.4217 30.3988 31.0909C29.8089 30.6737 29.3742 30.0726 29.1628 29.3817C28.9514 28.6908 28.9753 27.9493 29.2307 27.2735C29.5169 26.6382 29.9675 26.0908 30.5358 25.6878C31.9448 24.5771 33.4321 23.5695 34.9862 22.673C35.3125 22.4512 35.691 22.2293 36.0956 21.9944Z" fill="white"/>
<path d="M20.0038 4.49951C20.0038 4.82579 20.0038 5.15206 19.9711 5.41308C19.9172 7.16093 19.7603 8.90408 19.5013 10.6335C19.4152 11.1223 19.3019 11.6059 19.162 12.0821C19.0367 12.4962 18.8197 12.8766 18.527 13.1952C18.2344 13.5138 17.8738 13.7623 17.4719 13.9223C16.963 14.1612 16.3995 14.26 15.8397 14.2083C15.2799 14.1567 14.744 13.9566 14.2874 13.6287C13.6847 13.2144 13.2387 12.6096 13.021 11.9114C12.8033 11.2132 12.8264 10.4621 13.0867 9.77864C13.3791 9.14724 13.8285 8.60132 14.3918 8.19294C15.8024 7.08437 17.2896 6.07694 18.8422 5.17816L20.0038 4.49951Z" fill="white"/>
<path d="M29.0027 9.00195C29.0027 9.88289 28.9505 10.6725 28.9113 11.4555C28.769 16.1139 28.3485 20.7597 27.6519 25.3679C27.4321 26.6908 27.1292 27.9985 26.7448 29.2832C26.4109 30.3904 25.8305 31.4077 25.0473 32.2587C24.2642 33.1097 23.2985 33.7723 22.2227 34.1969C20.8574 34.8341 19.3471 35.0962 17.847 34.9563C16.3469 34.8164 14.9112 34.2795 13.6873 33.4008C12.1087 32.2819 10.9448 30.6721 10.377 28.8224C9.80925 26.9727 9.86956 24.9871 10.5486 23.1753C11.3016 21.4798 12.4904 20.014 13.994 18.9272C17.7713 15.947 21.7553 13.2387 25.9161 10.8226C26.908 10.2222 27.9129 9.64798 29.0027 9.00195Z" fill="white"/>
</svg>
