<svg width="43" height="43" viewBox="0 0 43 43" fill="none" xmlns="http://www.w3.org/2000/svg">
<path d="M21.4203 42.5757C33.1042 42.5757 42.576 33.104 42.576 21.4201C42.576 9.73611 33.1042 0.264404 21.4203 0.264404C9.73636 0.264404 0.264648 9.73611 0.264648 21.4201C0.264648 33.104 9.73636 42.5757 21.4203 42.5757Z" fill="#C1272D"/>
<path d="M13.1656 21.6616C13.1656 20.0226 13.6516 18.4203 14.5622 17.0574C15.4729 15.6946 16.7672 14.6324 18.2815 14.0051C19.7958 13.3779 21.4621 13.2137 23.0697 13.5335C24.6773 13.8533 26.154 14.6426 27.313 15.8016C28.472 16.9606 29.2613 18.4373 29.5811 20.0449C29.9008 21.6525 29.7367 23.3188 29.1095 24.8331C28.4822 26.3474 27.42 27.6417 26.0571 28.5524C24.6943 29.463 23.092 29.949 21.4529 29.949C20.3639 29.9516 19.2851 29.739 18.2784 29.3234C17.2718 28.9079 16.3572 28.2975 15.5871 27.5275C14.817 26.7574 14.2067 25.8428 13.7911 24.8361C13.3756 23.8295 13.163 22.7507 13.1656 21.6616Z" fill="white"/>
<path d="M21.6031 5.37402L23.3911 10.738H19.5215L21.6031 5.37402Z" fill="white"/>
<path d="M23.3913 32.1025L21.6033 37.4599L19.5151 32.0959L23.3913 32.1025Z" fill="white"/>
<path d="M32.8923 32.6375L27.6719 30.3536L30.393 27.6716L32.8923 32.6375Z" fill="white"/>
<path d="M12.487 15.1428L10.2031 9.92236L15.2017 12.4151L12.487 15.1428Z" fill="white"/>
<path d="M10.7448 23.5998L5.38086 21.5116L10.7448 19.7236V23.5998Z" fill="white"/>
<path d="M32.0898 23.5998V19.7236L37.4603 21.5116L32.0898 23.5998Z" fill="white"/>
<path d="M32.8269 10.1377L30.5365 15.3581L27.8545 12.6631L32.8269 10.1377Z" fill="white"/>
<path d="M12.6634 27.8347L15.3389 30.5428L10.2555 32.781L10.1968 32.7223L12.6634 27.8347Z" fill="white"/>
</svg>
