<svg width="44" height="43" viewBox="0 0 44 43" fill="none" xmlns="http://www.w3.org/2000/svg">
<path d="M21.9955 42.5757C33.6794 42.5757 43.1511 33.104 43.1511 21.4201C43.1511 9.73611 33.6794 0.264404 21.9955 0.264404C10.3116 0.264404 0.839844 9.73611 0.839844 21.4201C0.839844 33.104 10.3116 42.5757 21.9955 42.5757Z" fill="#C1272D"/>
<path d="M36.2602 19.2861V19.4558C36.2447 19.4783 36.2316 19.5023 36.2211 19.5275C36.2168 19.7124 36.1661 19.8932 36.0737 20.0533C35.9813 20.2134 35.8501 20.3477 35.6922 20.4439C35.5343 20.54 35.3548 20.595 35.1701 20.6036C34.9855 20.6122 34.8016 20.5743 34.6354 20.4933C32.9453 19.9713 31.2552 19.4753 29.552 18.9925C29.4058 18.9519 29.2495 18.9682 29.1148 19.0381C27.9076 19.782 26.7069 20.539 25.5062 21.296C25.4475 21.3351 25.4018 21.3808 25.33 21.4395C26.6351 22.2552 27.9402 23.0644 29.1866 23.854C29.3024 23.8969 29.4297 23.8969 29.5455 23.854C31.2748 23.3515 33.0105 22.8621 34.7659 22.34C34.9089 22.2941 35.0598 22.2776 35.2094 22.2914C35.359 22.3052 35.5042 22.349 35.6364 22.4203C35.7687 22.4916 35.8852 22.5889 35.9789 22.7063C36.0726 22.8237 36.1417 22.9588 36.1819 23.1035C36.2142 23.2085 36.2403 23.3153 36.2602 23.4233V23.482C36.2602 23.482 36.2602 23.5473 36.2276 23.5799C36.1976 23.8563 36.077 24.1149 35.8846 24.3156C35.6922 24.5163 35.4388 24.6476 35.164 24.6892C34.2308 24.9437 33.2977 25.2308 32.371 25.4984L32.0252 25.6158L32.2993 25.792C33.0366 26.2619 33.7806 26.7121 34.5049 27.1885C34.6378 27.281 34.7511 27.3989 34.8383 27.5355C34.9254 27.672 34.9846 27.8245 35.0125 27.984C35.0404 28.1436 35.0365 28.3071 35.0009 28.4651C34.9653 28.6231 34.8987 28.7725 34.8051 28.9047C34.7264 29.0304 34.622 29.138 34.4985 29.2202C34.3751 29.3024 34.2356 29.3573 34.0893 29.3814C33.943 29.4055 33.7932 29.3981 33.65 29.3598C33.5067 29.3215 33.3733 29.2531 33.2585 29.1592L32.1166 28.4414L30.9028 27.6844C31.0203 28.1804 31.1247 28.611 31.2291 29.0417C31.4314 29.89 31.6663 30.7253 31.8294 31.5801C31.8775 31.8719 31.8106 32.171 31.6426 32.4145C31.4746 32.6579 31.2188 32.8266 30.9289 32.8852C30.6427 32.9264 30.3518 32.8528 30.1195 32.6805C29.8873 32.5081 29.7326 32.251 29.6891 31.9651C29.2192 30.1119 28.7537 28.2456 28.2926 26.3663C28.2837 26.2695 28.2534 26.1759 28.2037 26.0923C28.154 26.0088 28.0863 25.9374 28.0055 25.8834C26.4459 24.9176 24.8994 23.9257 23.3463 22.9665C23.2775 22.9221 23.2055 22.8829 23.1309 22.849C23.1269 22.8837 23.1269 22.9187 23.1309 22.9534C23.1309 24.5326 23.1309 26.1183 23.1309 27.6975C23.1375 27.815 23.1861 27.9262 23.268 28.0107C24.0771 28.9047 24.8994 29.7922 25.715 30.6861C26.211 31.2278 26.7265 31.7629 27.2094 32.324C27.4137 32.5723 27.5148 32.8895 27.4917 33.2102C27.4686 33.5308 27.3231 33.8304 27.0854 34.0468C26.9707 34.1434 26.8373 34.2153 26.6935 34.258C26.5497 34.3007 26.3987 34.3132 26.2498 34.2948C26.101 34.2764 25.9575 34.2275 25.8285 34.1512C25.6994 34.0748 25.5875 33.9726 25.4997 33.851C24.808 33.0484 24.0771 32.2914 23.3593 31.5084C23.304 31.4372 23.2559 31.3607 23.2158 31.28L23.1309 31.3387C23.1309 31.43 23.1309 31.5214 23.1309 31.6128C23.1309 32.4741 23.1309 33.3355 23.1309 34.1903C23.1323 34.3503 23.1169 34.5099 23.0853 34.6667C23.0287 34.8948 22.9006 35.0989 22.7198 35.2492C22.5391 35.3995 22.315 35.488 22.0803 35.502C21.8404 35.5203 21.6014 35.4566 21.4022 35.3215C21.2031 35.1864 21.0557 34.9878 20.9841 34.7581C20.9294 34.5692 20.9009 34.3738 20.8992 34.1773C20.8992 33.3159 20.8992 32.4546 20.8992 31.5671C20.8992 31.4692 20.8992 31.3713 20.8992 31.1951L20.6513 31.4692C19.9074 32.2784 19.1634 33.081 18.4261 33.8902C18.2993 34.0433 18.13 34.1555 17.9395 34.2124C17.749 34.2693 17.5459 34.2685 17.3559 34.2099C17.1588 34.1586 16.9804 34.0522 16.8417 33.9031C16.703 33.754 16.6097 33.5684 16.5728 33.3681C16.5204 33.1496 16.5253 32.9213 16.587 32.7052C16.6488 32.4891 16.7653 32.2927 16.9252 32.1348C18.2042 30.7514 19.4745 29.3636 20.7361 27.9715C20.8428 27.848 20.9028 27.691 20.9058 27.5278C20.9058 26.04 20.9058 24.5522 20.9058 23.0644C20.9058 22.9795 20.9058 22.8882 20.9058 22.7707L20.5925 22.9534C19.1634 23.8474 17.7474 24.761 16.3118 25.6289C16.1434 25.7217 15.9976 25.8505 15.8848 26.0062C15.772 26.1618 15.695 26.3405 15.6593 26.5294C15.2286 28.3565 14.7718 30.1772 14.315 31.9978C14.2774 32.2566 14.148 32.4934 13.9503 32.6647C13.7526 32.836 13.4999 32.9305 13.2383 32.9309C12.9985 32.9328 12.7651 32.8531 12.5766 32.7049C12.388 32.5567 12.2555 32.3487 12.2007 32.1152C12.1486 31.87 12.1486 31.6165 12.2007 31.3713C12.3313 30.7188 12.5074 30.1184 12.6575 29.492C12.8076 28.8655 12.9381 28.337 13.0947 27.7105L12.8076 27.8802C12.0963 28.3304 11.3851 28.7807 10.6673 29.2244C10.527 29.3197 10.3662 29.3804 10.198 29.4013C10.0297 29.4223 9.85892 29.403 9.69961 29.345C9.5403 29.287 9.39705 29.192 9.28165 29.0678C9.16626 28.9436 9.08202 28.7937 9.03588 28.6306C8.94187 28.3631 8.94241 28.0714 9.03741 27.8042C9.13241 27.5371 9.31612 27.3105 9.55792 27.1624L11.7179 25.7985L11.9593 25.6289L11.7896 25.5702C10.7586 25.27 9.73411 24.9633 8.70308 24.6696C8.46751 24.6189 8.2531 24.4973 8.08864 24.3211C7.92417 24.145 7.81752 23.9228 7.78298 23.6843C7.77068 23.6398 7.75542 23.5962 7.7373 23.5538V23.3906C7.7373 23.3515 7.77646 23.3189 7.78298 23.2862C7.79452 23.1101 7.84864 22.9395 7.9407 22.789C8.03276 22.6384 8.16 22.5125 8.31148 22.422C8.46297 22.3315 8.63417 22.2791 8.81036 22.2694C8.98656 22.2596 9.16248 22.2929 9.323 22.3661C11.0327 22.8621 12.7424 23.358 14.452 23.867C14.5299 23.894 14.6131 23.9022 14.6948 23.8908C14.7765 23.8795 14.8543 23.849 14.9219 23.8017C16.0965 23.0513 17.2776 22.3139 18.4522 21.5766L18.6675 21.4265C18.637 21.3958 18.6043 21.3675 18.5696 21.3416C17.3298 20.5586 16.0899 19.7755 14.8436 19.0055C14.7193 18.9595 14.5828 18.9595 14.4586 19.0055C12.7228 19.5014 11.0001 20.0104 9.2708 20.5129C9.11661 20.5689 8.95188 20.5898 8.7886 20.5741C8.62532 20.5583 8.4676 20.5064 8.32694 20.422C8.18628 20.3376 8.06622 20.2229 7.97551 20.0862C7.88479 19.9495 7.82571 19.7944 7.80256 19.632C7.79186 19.5778 7.77432 19.5251 7.75036 19.4753V19.3057C7.80151 18.9869 7.95771 18.6943 8.19417 18.4744C8.43062 18.2545 8.73376 18.1199 9.05545 18.0919C9.708 17.9549 10.2888 17.7461 10.9087 17.5634L11.9724 17.2306L11.6526 17.0152C10.9283 16.565 10.2039 16.1212 9.49266 15.6514C9.35871 15.5606 9.24428 15.4439 9.1561 15.3082C9.06793 15.1724 9.00778 15.0205 8.9792 14.8612C8.95062 14.7019 8.9542 14.5385 8.9897 14.3806C9.02521 14.2227 9.09194 14.0735 9.18596 13.9417C9.26475 13.8163 9.36916 13.709 9.49234 13.6268C9.61553 13.5445 9.7547 13.4893 9.90074 13.4646C10.0468 13.44 10.1964 13.4465 10.3397 13.4837C10.4831 13.521 10.6169 13.5881 10.7325 13.6807L12.7946 14.9858L13.0882 15.1489C12.9316 14.4964 12.788 13.9287 12.651 13.3479C12.4813 12.6497 12.2856 11.9515 12.1616 11.2467C12.1133 10.9558 12.1794 10.6575 12.346 10.4143C12.5126 10.171 12.7669 10.0016 13.0556 9.9416C13.3366 9.90104 13.6225 9.96978 13.8543 10.1337C14.0862 10.2975 14.2464 10.5441 14.302 10.8225L14.3542 11.0118C14.7892 12.8694 15.2438 14.727 15.718 16.5846C15.737 16.6743 15.7747 16.7591 15.8287 16.8333C15.8826 16.9075 15.9517 16.9695 16.0312 17.0152L20.5469 19.8408L20.8731 20.0365C20.878 19.9736 20.878 19.9103 20.8731 19.8473C20.8731 18.2942 20.8731 16.7412 20.8731 15.1881C20.8617 15.0532 20.8041 14.9265 20.71 14.8292C19.9791 14.0135 19.2352 13.2109 18.4913 12.4017C17.9301 11.7883 17.3559 11.1814 16.8077 10.555C16.5935 10.3078 16.4857 9.98599 16.5077 9.65965C16.5297 9.33331 16.6798 9.02889 16.9252 8.81269C17.0406 8.71722 17.1746 8.64673 17.3186 8.60565C17.4626 8.56458 17.6136 8.55382 17.762 8.57406C17.9104 8.59429 18.053 8.64509 18.1808 8.72322C18.3086 8.80136 18.4187 8.90515 18.5044 9.02803L20.6382 11.3576C20.7 11.4351 20.7546 11.5181 20.8013 11.6056L20.8927 11.5273V8.9171C20.8911 8.69873 20.9064 8.48056 20.9384 8.26455C20.976 8.03214 21.0879 7.81817 21.2573 7.65466C21.4267 7.49116 21.6445 7.3869 21.8781 7.3575C22.1202 7.31964 22.368 7.3682 22.578 7.49466C22.788 7.62112 22.9468 7.81743 23.0265 8.04921C23.0876 8.23467 23.1206 8.42822 23.1244 8.62345C23.1244 9.50439 23.1244 10.3853 23.1244 11.2336C23.1244 11.325 23.1244 11.4098 23.1244 11.5012L23.1832 11.5338C23.2419 11.462 23.2941 11.3837 23.3528 11.3185L25.5976 8.87794C25.7238 8.72573 25.8915 8.61331 26.0802 8.55425C26.2689 8.4952 26.4707 8.49204 26.6612 8.54514C26.859 8.59952 27.0373 8.70858 27.1759 8.8598C27.3144 9.01102 27.4074 9.19825 27.4443 9.39998C27.5071 9.6313 27.5051 9.87546 27.4383 10.1057C27.3716 10.3359 27.2427 10.5433 27.0658 10.7051C25.7999 12.0667 24.5405 13.4393 23.2876 14.8227C23.1836 14.9453 23.1239 15.0993 23.1179 15.2599C23.1179 16.7542 23.1179 18.2551 23.1179 19.7494C23.1179 19.8342 23.1179 19.9126 23.1179 20.0235L23.4246 19.8473C24.9124 18.9142 26.3937 17.9745 27.888 17.0479C27.9915 16.99 28.0812 16.9105 28.151 16.8148C28.2208 16.719 28.2691 16.6093 28.2926 16.4932C28.7494 14.5943 29.2192 12.7019 29.6891 10.8095C29.7361 10.569 29.8616 10.3508 30.0457 10.189C30.2299 10.0273 30.4624 9.93112 30.707 9.9155C30.9503 9.90526 31.1898 9.97776 31.3865 10.1212C31.5832 10.2646 31.7256 10.4704 31.7903 10.7051C31.8387 10.9529 31.8387 11.2077 31.7903 11.4555C31.6598 12.1081 31.4836 12.7019 31.3335 13.3283C31.1834 13.9548 31.0529 14.4833 30.8963 15.1098C31.0268 15.038 31.1116 14.9923 31.1899 14.9401L33.3499 13.5828C33.478 13.4999 33.6226 13.4456 33.7736 13.4239C33.9247 13.4021 34.0787 13.4133 34.225 13.4567C34.3714 13.5001 34.5066 13.5747 34.6213 13.6753C34.7361 13.7759 34.8277 13.9002 34.8899 14.0396C35.0314 14.3184 35.063 14.6402 34.9784 14.9411C34.8938 15.2421 34.6992 15.5003 34.4331 15.6645L32.2732 17.0218C32.2014 17.0674 32.1296 17.1262 32.0317 17.1979L32.2014 17.2502L35.2945 18.1507C35.5376 18.2045 35.7576 18.3339 35.9228 18.5202C36.0881 18.7065 36.1902 18.9404 36.2146 19.1882C36.2275 19.2219 36.2427 19.2546 36.2602 19.2861Z" fill="white"/>
</svg>
