<svg width="44" height="35" viewBox="0 0 44 35" fill="none" xmlns="http://www.w3.org/2000/svg">
<path d="M43.0126 3.51589H0.583882C0.43532 3.51589 0.292795 3.45627 0.187672 3.35006C0.0825418 3.24385 0.0234375 3.09975 0.0234375 2.94944V0.589888C0.0234375 0.439579 0.0825418 0.295474 0.187672 0.189262C0.292795 0.0830583 0.43532 0.0234375 0.583882 0.0234375H43.0126C43.1612 0.0234375 43.3037 0.0830583 43.4088 0.189262C43.514 0.295474 43.5731 0.439579 43.5731 0.589888V2.94944C43.5731 3.09975 43.514 3.24385 43.4088 3.35006C43.3037 3.45627 43.1612 3.51589 43.0126 3.51589ZM43.0126 19.2462H0.583882C0.43532 19.2462 0.292795 19.1866 0.187672 19.0804C0.0825418 18.9742 0.0234375 18.8301 0.0234375 18.6798V16.3202C0.0234375 16.1699 0.0825418 16.0258 0.187672 15.9196C0.292795 15.8134 0.43532 15.7538 0.583882 15.7538H43.0126C43.1612 15.7538 43.3037 15.8134 43.4088 15.9196C43.514 16.0258 43.5731 16.1699 43.5731 16.3202V18.6798C43.5731 18.8301 43.514 18.9742 43.4088 19.0804C43.3037 19.1866 43.1612 19.2462 43.0126 19.2462ZM43.0126 34.9766H0.583882C0.43532 34.9766 0.292795 34.9169 0.187672 34.8107C0.0825419 34.7045 0.0234375 34.5604 0.0234375 34.4101V32.0506C0.0234375 31.9003 0.0825418 31.7561 0.187672 31.6499C0.292795 31.5437 0.43532 31.4841 0.583882 31.4841H43.0126C43.1612 31.4841 43.3037 31.5437 43.4088 31.6499C43.514 31.7561 43.5731 31.9003 43.5731 32.0506V34.4101C43.5731 34.5604 43.514 34.7045 43.4088 34.8107C43.3037 34.9169 43.1612 34.9766 43.0126 34.9766Z" fill="white" stroke="#C1272D" stroke-width="0.046875"/>
</svg>
