<svg width="111" height="79" viewBox="0 0 111 79" fill="none" xmlns="http://www.w3.org/2000/svg">
<path d="M111 8.81153C106.766 10.0269 102.935 11.9513 99.5068 14.5846C96.079 17.2179 93.1553 20.2564 90.7357 23.7C88.3161 26.941 86.5014 30.4859 85.2915 34.3346C84.0817 38.1833 83.6785 41.9308 84.0817 45.5769H101.624C103.237 47.8051 104.548 50.3372 105.556 53.1731C106.564 56.009 107.068 58.541 107.068 60.7692C107.068 64.2128 106.564 67.5551 105.556 70.7961C104.548 73.8346 103.237 76.5692 101.624 79H67.7493C64.5232 71.5051 62.7084 64.3141 62.3052 57.4269C62.3052 45.8808 64.4223 36.259 68.6567 28.5615C73.0926 20.6615 78.436 14.3821 84.6866 9.72308C91.139 4.86153 98.0954 1.6205 105.556 0L111 8.81153ZM48.6948 8.81153C44.4605 10.0269 40.6294 11.9513 37.2016 14.5846C33.7738 17.2179 30.8501 20.2564 28.4305 23.7C26.0109 26.941 24.1962 30.4859 22.9864 34.3346C21.7766 38.1833 21.3733 41.9308 21.7766 45.5769H39.3188C40.9319 47.8051 42.2425 50.3372 43.2507 53.1731C44.2589 56.009 44.7629 58.541 44.7629 60.7692C44.7629 64.2128 44.2589 67.5551 43.2507 70.7961C42.2425 73.8346 40.9319 76.5692 39.3188 79H5.44414C2.21798 71.5051 0.403271 64.3141 0 57.4269C0 45.8808 2.11717 36.259 6.3515 28.5615C10.7875 20.6615 16.1308 14.3821 22.3815 9.72308C28.8338 4.86153 35.7902 1.6205 43.2507 0L48.6948 8.81153Z" fill="#E9E9E9"/>
</svg>
