<svg width="212" height="38" viewBox="0 0 212 38" fill="none" xmlns="http://www.w3.org/2000/svg">
<path d="M12.9196 23.481L8.2017 38.0005L20.55 29.0226L32.8918 38.0005L28.1837 23.481L40.5255 14.5129H25.268L20.55 0L15.8321 14.5129H0.571289L12.9196 23.481Z" fill="#004476"/>
<path d="M67.9931 14.5129L63.2751 0L58.5572 14.5129H43.2964L55.6447 23.481L50.9268 38.0005L63.2751 29.0226L75.6235 38.0005L70.9055 23.481L83.2572 14.5129H67.9931Z" fill="#004476"/>
<path d="M110.718 14.5129L106 0L101.282 14.5129H86.0215L98.3698 23.481L93.6519 38.0005L106 29.0226L118.349 38.0005L113.631 23.481L125.979 14.5129H110.718Z" fill="#004476"/>
<path d="M153.443 14.5129L148.725 0L144.007 14.5129H128.743L141.095 23.481L136.377 38.0005L148.725 29.0226L161.074 38.0005L156.356 23.481L168.704 14.5129H153.443Z" fill="#004476"/>
<path d="M196.168 14.5129L191.45 0L186.732 14.5129H171.475L183.816 23.481L179.098 38.0005L191.45 29.0226L203.798 38.0005L199.08 23.481L211.429 14.5129H196.168Z" fill="#004476"/>
</svg>
